<?xml version="1.0" standalone="no"?>
<!DOCTYPE svg PUBLIC "-//W3C//DTD SVG 20010904//EN"
 "http://www.w3.org/TR/2001/REC-SVG-20010904/DTD/svg10.dtd">
<svg version="1.0" xmlns="http://www.w3.org/2000/svg"
 width="150.000000pt" height="88.500000pt" viewBox="0 0 300.000000 177.000000"
 preserveAspectRatio="xMidYMid meet">

<g transform="translate(0.000000,177.000000) scale(0.100000,-0.100000)"
fill="#dedede" stroke="none">
<path d="M1070 1760 c-607 -64 -1059 -431 -1063 -865 -1 -124 13 -185 68 -300
238 -494 1032 -732 1701 -510 175 58 377 177 473 279 25 26 43 36 66 36 16 0
44 4 62 9 30 9 33 7 59 -31 15 -22 46 -52 69 -68 76 -52 170 -66 170 -25 0 15
-9 21 -42 27 -93 16 -150 67 -205 188 -22 47 -51 98 -66 114 -15 15 -113 102
-218 192 -202 172 -219 194 -189 240 28 44 60 33 293 -101 120 -69 226 -125
235 -125 10 0 17 8 17 19 0 14 -33 38 -125 91 -129 74 -139 85 -115 131 10 17
22 19 111 19 112 0 138 -9 187 -64 16 -19 114 -161 216 -315 176 -266 207
-305 222 -267 6 16 -368 586 -416 635 -35 34 -85 61 -117 61 -12 0 -33 28 -63
82 -149 269 -497 478 -898 538 -104 15 -331 20 -432 10z m503 -50 c334 -71
612 -237 756 -449 37 -55 71 -115 71 -126 0 -3 -28 -5 -63 -5 l-64 0 5 29 c3
22 -2 36 -19 53 -20 20 -53 29 -213 56 -173 30 -190 32 -212 17 -13 -8 -26
-25 -29 -38 -16 -71 -55 -305 -55 -329 0 -47 28 -63 136 -82 134 -24 137 -25
128 -44 -4 -10 -9 -32 -12 -50 -4 -29 1 -38 38 -72 40 -37 42 -41 27 -57 -25
-28 -30 -68 -14 -99 11 -20 37 -38 98 -65 46 -20 84 -42 84 -49 0 -25 -164
-146 -272 -203 -211 -109 -400 -157 -655 -164 -260 -8 -477 29 -677 115 -160
69 -246 127 -362 242 -93 92 -112 117 -153 200 -25 52 -53 127 -61 165 -48
232 33 458 232 646 191 180 421 278 778 333 17 2 116 3 220 1 144 -3 213 -9
288 -25z m492 -496 c83 -14 154 -29 159 -34 7 -7 -1 -61 -20 -132 -4 -14 -17
-9 -82 28 -118 67 -193 56 -222 -31 -15 -47 -1 -88 47 -137 21 -21 35 -38 33
-38 -3 0 -43 7 -90 15 -47 8 -86 15 -87 15 -8 0 -1 56 22 184 33 178 29 169
62 162 16 -3 96 -17 178 -32z m145 -531 c107 -91 112 -97 89 -105 -31 -12 -47
-4 -158 77 -89 65 -97 76 -85 109 12 31 41 15 154 -81z m-21 -125 c43 -31 73
-38 134 -28 23 4 31 -1 48 -27 l21 -33 -27 -10 c-14 -5 -41 -10 -60 -10 -34 0
-197 69 -209 89 -10 16 12 51 32 51 10 0 38 -14 61 -32z"/>
<path d="M1382 1448 c-20 -20 -14 -65 17 -121 148 -262 145 -676 -6 -920 -32
-50 -28 -96 9 -116 25 -14 29 -14 55 5 39 28 107 169 140 289 26 93 28 112 27
285 0 158 -4 197 -22 265 -31 110 -67 202 -105 266 -28 47 -37 54 -67 57 -19
2 -41 -3 -48 -10z"/>
<path d="M1172 1333 c-7 -3 -17 -16 -23 -29 -7 -20 -2 -39 26 -94 57 -112 79
-207 79 -340 0 -133 -22 -230 -79 -338 -37 -72 -36 -97 7 -121 40 -23 73 5
118 102 96 207 103 440 22 664 -42 113 -75 163 -110 162 -15 0 -33 -3 -40 -6z"/>
<path d="M952 1218 c-36 -18 -37 -50 -3 -121 42 -88 54 -155 49 -263 -4 -80
-10 -103 -42 -169 -42 -89 -43 -98 -16 -125 49 -49 98 -10 146 116 36 91 45
265 20 364 -24 94 -72 189 -103 201 -13 5 -25 9 -26 8 -1 0 -12 -5 -25 -11z"/>
<path d="M716 1088 c-22 -31 -20 -40 15 -103 43 -77 43 -144 0 -227 -36 -71
-38 -81 -11 -108 45 -45 93 -17 138 80 22 46 26 70 27 140 0 71 -4 94 -26 141
-15 32 -36 66 -48 78 -28 28 -75 28 -95 -1z"/>
</g>
</svg>
